<mxfile host="app.diagrams.net" agent="Mozilla/5.0 (Windows NT 10.0; Win64; x64) AppleWebKit/537.36 (KHTML, like Gecko) Chrome/131.0.0.0 Safari/537.36 Edg/131.0.0.0" version="26.0.10">
  <diagram name="Page-1" id="0PDTeWTnHMTXMjLwmvuA">
    <mxGraphModel dx="3700" dy="1646" grid="0" gridSize="10" guides="1" tooltips="1" connect="1" arrows="1" fold="1" page="0" pageScale="1" pageWidth="850" pageHeight="1100" math="0" shadow="0">
      <root>
        <mxCell id="0" />
        <mxCell id="1" parent="0" />
        <mxCell id="hASC08Up0jTJIxxnL5Ud-16" style="edgeStyle=none;curved=1;rounded=0;orthogonalLoop=1;jettySize=auto;html=1;fontSize=12;startSize=8;endSize=8;entryX=0.75;entryY=0;entryDx=0;entryDy=0;" edge="1" parent="1" source="hASC08Up0jTJIxxnL5Ud-1" target="hASC08Up0jTJIxxnL5Ud-17">
          <mxGeometry relative="1" as="geometry">
            <mxPoint x="79.99999237060547" y="345.7500534057617" as="targetPoint" />
            <Array as="points">
              <mxPoint x="135" y="259" />
            </Array>
          </mxGeometry>
        </mxCell>
        <mxCell id="hASC08Up0jTJIxxnL5Ud-18" style="edgeStyle=none;curved=1;rounded=0;orthogonalLoop=1;jettySize=auto;html=1;exitX=0.5;exitY=1;exitDx=0;exitDy=0;fontSize=12;startSize=8;endSize=8;" edge="1" parent="1" source="hASC08Up0jTJIxxnL5Ud-1">
          <mxGeometry relative="1" as="geometry">
            <mxPoint x="218.25" y="374.7500305175781" as="targetPoint" />
          </mxGeometry>
        </mxCell>
        <mxCell id="hASC08Up0jTJIxxnL5Ud-35" style="edgeStyle=none;curved=1;rounded=0;orthogonalLoop=1;jettySize=auto;html=1;fontSize=12;startSize=8;endSize=8;entryX=0.5;entryY=1;entryDx=0;entryDy=0;" edge="1" parent="1" source="hASC08Up0jTJIxxnL5Ud-1" target="hASC08Up0jTJIxxnL5Ud-37">
          <mxGeometry relative="1" as="geometry">
            <mxPoint x="534.0961397611177" y="185.23077862079322" as="targetPoint" />
            <Array as="points">
              <mxPoint x="555" y="298" />
            </Array>
          </mxGeometry>
        </mxCell>
        <mxCell id="hASC08Up0jTJIxxnL5Ud-1" value="Router:" style="whiteSpace=wrap;html=1;aspect=fixed;" vertex="1" parent="1">
          <mxGeometry x="178" y="258" width="80" height="80" as="geometry" />
        </mxCell>
        <mxCell id="hASC08Up0jTJIxxnL5Ud-12" style="edgeStyle=none;curved=1;rounded=0;orthogonalLoop=1;jettySize=auto;html=1;fontSize=12;startSize=8;endSize=8;entryX=0.5;entryY=0;entryDx=0;entryDy=0;" edge="1" parent="1" source="hASC08Up0jTJIxxnL5Ud-2" target="hASC08Up0jTJIxxnL5Ud-4">
          <mxGeometry relative="1" as="geometry">
            <mxPoint x="-68.39999389648438" y="-93" as="targetPoint" />
          </mxGeometry>
        </mxCell>
        <mxCell id="hASC08Up0jTJIxxnL5Ud-38" style="edgeStyle=none;curved=1;rounded=0;orthogonalLoop=1;jettySize=auto;html=1;fontSize=12;startSize=8;endSize=8;" edge="1" parent="1" source="hASC08Up0jTJIxxnL5Ud-2">
          <mxGeometry relative="1" as="geometry">
            <mxPoint x="-353.52772352430566" y="-105.5555419921875" as="targetPoint" />
          </mxGeometry>
        </mxCell>
        <mxCell id="hASC08Up0jTJIxxnL5Ud-39" style="edgeStyle=none;curved=1;rounded=0;orthogonalLoop=1;jettySize=auto;html=1;fontSize=12;startSize=8;endSize=8;" edge="1" parent="1" source="hASC08Up0jTJIxxnL5Ud-2">
          <mxGeometry relative="1" as="geometry">
            <mxPoint x="-40.63889567057299" y="-162.44437662760424" as="targetPoint" />
          </mxGeometry>
        </mxCell>
        <mxCell id="hASC08Up0jTJIxxnL5Ud-2" value="Philips Hue Bridge" style="whiteSpace=wrap;html=1;aspect=fixed;" vertex="1" parent="1">
          <mxGeometry x="-232" y="-133" width="80" height="80" as="geometry" />
        </mxCell>
        <mxCell id="hASC08Up0jTJIxxnL5Ud-54" style="edgeStyle=none;curved=1;rounded=0;orthogonalLoop=1;jettySize=auto;html=1;exitX=0.5;exitY=1;exitDx=0;exitDy=0;entryX=0.5;entryY=0;entryDx=0;entryDy=0;fontSize=12;startSize=8;endSize=8;" edge="1" parent="1" source="hASC08Up0jTJIxxnL5Ud-3" target="hASC08Up0jTJIxxnL5Ud-51">
          <mxGeometry relative="1" as="geometry" />
        </mxCell>
        <mxCell id="hASC08Up0jTJIxxnL5Ud-55" style="edgeStyle=none;curved=1;rounded=0;orthogonalLoop=1;jettySize=auto;html=1;exitX=0;exitY=0.5;exitDx=0;exitDy=0;entryX=0.5;entryY=0;entryDx=0;entryDy=0;fontSize=12;startSize=8;endSize=8;" edge="1" parent="1" source="hASC08Up0jTJIxxnL5Ud-3" target="hASC08Up0jTJIxxnL5Ud-50">
          <mxGeometry relative="1" as="geometry" />
        </mxCell>
        <mxCell id="hASC08Up0jTJIxxnL5Ud-56" style="edgeStyle=none;curved=1;rounded=0;orthogonalLoop=1;jettySize=auto;html=1;exitX=1;exitY=1;exitDx=0;exitDy=0;entryX=0.25;entryY=0;entryDx=0;entryDy=0;fontSize=12;startSize=8;endSize=8;" edge="1" parent="1" source="hASC08Up0jTJIxxnL5Ud-3" target="hASC08Up0jTJIxxnL5Ud-52">
          <mxGeometry relative="1" as="geometry" />
        </mxCell>
        <mxCell id="hASC08Up0jTJIxxnL5Ud-3" value="Google Home&amp;nbsp;&lt;div&gt;Mini&lt;/div&gt;" style="whiteSpace=wrap;html=1;aspect=fixed;" vertex="1" parent="1">
          <mxGeometry x="178" y="378" width="80" height="80" as="geometry" />
        </mxCell>
        <mxCell id="hASC08Up0jTJIxxnL5Ud-15" style="edgeStyle=none;curved=1;rounded=0;orthogonalLoop=1;jettySize=auto;html=1;exitX=0;exitY=0.25;exitDx=0;exitDy=0;fontSize=12;startSize=8;endSize=8;entryX=0.5;entryY=1;entryDx=0;entryDy=0;" edge="1" parent="1" source="hASC08Up0jTJIxxnL5Ud-4" target="hASC08Up0jTJIxxnL5Ud-2">
          <mxGeometry relative="1" as="geometry">
            <mxPoint x="-148" y="-73" as="targetPoint" />
          </mxGeometry>
        </mxCell>
        <mxCell id="hASC08Up0jTJIxxnL5Ud-92" style="edgeStyle=none;curved=1;rounded=0;orthogonalLoop=1;jettySize=auto;html=1;exitX=0;exitY=1;exitDx=0;exitDy=0;entryX=1;entryY=0.5;entryDx=0;entryDy=0;fontSize=12;startSize=8;endSize=8;" edge="1" parent="1" source="hASC08Up0jTJIxxnL5Ud-4" target="hASC08Up0jTJIxxnL5Ud-64">
          <mxGeometry relative="1" as="geometry" />
        </mxCell>
        <mxCell id="hASC08Up0jTJIxxnL5Ud-4" value="T-mobile Hotspot" style="whiteSpace=wrap;html=1;aspect=fixed;" vertex="1" parent="1">
          <mxGeometry x="-192" y="86" width="80" height="80" as="geometry" />
        </mxCell>
        <mxCell id="hASC08Up0jTJIxxnL5Ud-82" style="edgeStyle=none;curved=1;rounded=0;orthogonalLoop=1;jettySize=auto;html=1;exitX=0.25;exitY=1;exitDx=0;exitDy=0;entryX=1;entryY=0.5;entryDx=0;entryDy=0;fontSize=12;startSize=8;endSize=8;" edge="1" parent="1" source="hASC08Up0jTJIxxnL5Ud-5" target="hASC08Up0jTJIxxnL5Ud-7">
          <mxGeometry relative="1" as="geometry">
            <Array as="points">
              <mxPoint x="-184" y="438" />
            </Array>
          </mxGeometry>
        </mxCell>
        <mxCell id="hASC08Up0jTJIxxnL5Ud-5" value="T-Mobile Phone" style="whiteSpace=wrap;html=1;aspect=fixed;" vertex="1" parent="1">
          <mxGeometry x="173" y="-49" width="80" height="80" as="geometry" />
        </mxCell>
        <mxCell id="hASC08Up0jTJIxxnL5Ud-80" style="edgeStyle=none;curved=1;rounded=0;orthogonalLoop=1;jettySize=auto;html=1;exitX=1;exitY=0;exitDx=0;exitDy=0;entryX=0.5;entryY=1;entryDx=0;entryDy=0;fontSize=12;startSize=8;endSize=8;" edge="1" parent="1" source="hASC08Up0jTJIxxnL5Ud-7" target="hASC08Up0jTJIxxnL5Ud-64">
          <mxGeometry relative="1" as="geometry" />
        </mxCell>
        <mxCell id="hASC08Up0jTJIxxnL5Ud-87" style="edgeStyle=none;curved=1;rounded=0;orthogonalLoop=1;jettySize=auto;html=1;exitX=1;exitY=0.25;exitDx=0;exitDy=0;entryX=0;entryY=0.5;entryDx=0;entryDy=0;fontSize=12;startSize=8;endSize=8;" edge="1" parent="1" source="hASC08Up0jTJIxxnL5Ud-7" target="hASC08Up0jTJIxxnL5Ud-63">
          <mxGeometry relative="1" as="geometry" />
        </mxCell>
        <mxCell id="hASC08Up0jTJIxxnL5Ud-90" style="edgeStyle=none;curved=1;rounded=0;orthogonalLoop=1;jettySize=auto;html=1;exitX=0.75;exitY=1;exitDx=0;exitDy=0;entryX=0;entryY=0.5;entryDx=0;entryDy=0;fontSize=12;startSize=8;endSize=8;" edge="1" parent="1" source="hASC08Up0jTJIxxnL5Ud-7" target="hASC08Up0jTJIxxnL5Ud-62">
          <mxGeometry relative="1" as="geometry" />
        </mxCell>
        <mxCell id="hASC08Up0jTJIxxnL5Ud-7" value="Internet" style="whiteSpace=wrap;html=1;aspect=fixed;" vertex="1" parent="1">
          <mxGeometry x="-934" y="427" width="80" height="80" as="geometry" />
        </mxCell>
        <mxCell id="hASC08Up0jTJIxxnL5Ud-10" style="edgeStyle=none;curved=1;rounded=0;orthogonalLoop=1;jettySize=auto;html=1;entryX=0.25;entryY=0;entryDx=0;entryDy=0;fontSize=12;startSize=8;endSize=8;" edge="1" parent="1" source="hASC08Up0jTJIxxnL5Ud-8" target="hASC08Up0jTJIxxnL5Ud-2">
          <mxGeometry relative="1" as="geometry" />
        </mxCell>
        <mxCell id="hASC08Up0jTJIxxnL5Ud-8" value="" style="shape=image;html=1;verticalAlign=top;verticalLabelPosition=bottom;labelBackgroundColor=#ffffff;imageAspect=0;aspect=fixed;image=https://cdn0.iconfinder.com/data/icons/evericons-24px-vol-2/24/lightbulb-128.png" vertex="1" parent="1">
          <mxGeometry x="-284" y="-275" width="82" height="82" as="geometry" />
        </mxCell>
        <mxCell id="hASC08Up0jTJIxxnL5Ud-9" value="" style="shape=image;html=1;verticalAlign=top;verticalLabelPosition=bottom;labelBackgroundColor=#ffffff;imageAspect=0;aspect=fixed;image=https://cdn0.iconfinder.com/data/icons/evericons-24px-vol-2/24/lightbulb-128.png" vertex="1" parent="1">
          <mxGeometry x="-195" y="-275" width="81" height="81" as="geometry" />
        </mxCell>
        <mxCell id="hASC08Up0jTJIxxnL5Ud-11" style="edgeStyle=none;curved=1;rounded=0;orthogonalLoop=1;jettySize=auto;html=1;entryX=0.645;entryY=-0.017;entryDx=0;entryDy=0;entryPerimeter=0;fontSize=12;startSize=8;endSize=8;" edge="1" parent="1" source="hASC08Up0jTJIxxnL5Ud-9" target="hASC08Up0jTJIxxnL5Ud-2">
          <mxGeometry relative="1" as="geometry" />
        </mxCell>
        <mxCell id="hASC08Up0jTJIxxnL5Ud-74" style="edgeStyle=none;curved=1;rounded=0;orthogonalLoop=1;jettySize=auto;html=1;exitX=0;exitY=0.5;exitDx=0;exitDy=0;entryX=1;entryY=0.5;entryDx=0;entryDy=0;fontSize=12;startSize=8;endSize=8;" edge="1" parent="1" source="hASC08Up0jTJIxxnL5Ud-17" target="hASC08Up0jTJIxxnL5Ud-24">
          <mxGeometry relative="1" as="geometry" />
        </mxCell>
        <mxCell id="hASC08Up0jTJIxxnL5Ud-17" value="Linux VM&lt;div&gt;&lt;br&gt;&lt;div&gt;Linux hosted GE/Philips web client&lt;/div&gt;&lt;/div&gt;" style="whiteSpace=wrap;html=1;aspect=fixed;" vertex="1" parent="1">
          <mxGeometry x="39.99999237060547" y="305.7500534057617" width="80" height="80" as="geometry" />
        </mxCell>
        <mxCell id="hASC08Up0jTJIxxnL5Ud-23" style="edgeStyle=none;curved=1;rounded=0;orthogonalLoop=1;jettySize=auto;html=1;fontSize=12;startSize=8;endSize=8;" edge="1" parent="1">
          <mxGeometry relative="1" as="geometry">
            <mxPoint x="259.9999542236328" y="423.9999999999998" as="targetPoint" />
            <mxPoint x="326" y="423.9999999999998" as="sourcePoint" />
          </mxGeometry>
        </mxCell>
        <mxCell id="hASC08Up0jTJIxxnL5Ud-19" value="" style="shape=image;html=1;verticalAlign=top;verticalLabelPosition=bottom;labelBackgroundColor=#ffffff;imageAspect=0;aspect=fixed;image=https://cdn0.iconfinder.com/data/icons/evericons-24px-vol-2/24/lightbulb-128.png" vertex="1" parent="1">
          <mxGeometry x="328" y="362" width="92" height="92" as="geometry" />
        </mxCell>
        <mxCell id="hASC08Up0jTJIxxnL5Ud-21" value="C-Life by GE" style="text;html=1;align=center;verticalAlign=middle;whiteSpace=wrap;rounded=0;" vertex="1" parent="1">
          <mxGeometry x="341" y="463" width="60" height="30" as="geometry" />
        </mxCell>
        <mxCell id="hASC08Up0jTJIxxnL5Ud-22" value="Philips Hue A19 Bulbs&lt;div&gt;&lt;br&gt;&lt;/div&gt;" style="text;html=1;align=center;verticalAlign=middle;whiteSpace=wrap;rounded=0;" vertex="1" parent="1">
          <mxGeometry x="-252" y="-314" width="60" height="30" as="geometry" />
        </mxCell>
        <mxCell id="hASC08Up0jTJIxxnL5Ud-85" style="edgeStyle=none;curved=1;rounded=0;orthogonalLoop=1;jettySize=auto;html=1;exitX=0;exitY=0.5;exitDx=0;exitDy=0;fontSize=12;startSize=8;endSize=8;entryX=1;entryY=0.75;entryDx=0;entryDy=0;" edge="1" parent="1" source="hASC08Up0jTJIxxnL5Ud-24" target="hASC08Up0jTJIxxnL5Ud-7">
          <mxGeometry relative="1" as="geometry">
            <Array as="points">
              <mxPoint x="-459" y="456" />
            </Array>
          </mxGeometry>
        </mxCell>
        <mxCell id="hASC08Up0jTJIxxnL5Ud-24" value="NAT" style="rounded=0;whiteSpace=wrap;html=1;" vertex="1" parent="1">
          <mxGeometry x="-94" y="320" width="78" height="69" as="geometry" />
        </mxCell>
        <mxCell id="hASC08Up0jTJIxxnL5Ud-65" style="edgeStyle=none;curved=1;rounded=0;orthogonalLoop=1;jettySize=auto;html=1;entryX=0.5;entryY=0;entryDx=0;entryDy=0;fontSize=12;startSize=8;endSize=8;" edge="1" parent="1" source="hASC08Up0jTJIxxnL5Ud-26" target="hASC08Up0jTJIxxnL5Ud-37">
          <mxGeometry relative="1" as="geometry" />
        </mxCell>
        <mxCell id="hASC08Up0jTJIxxnL5Ud-68" style="edgeStyle=none;curved=1;rounded=0;orthogonalLoop=1;jettySize=auto;html=1;exitX=0.5;exitY=1;exitDx=0;exitDy=0;fontSize=12;startSize=8;endSize=8;" edge="1" parent="1">
          <mxGeometry relative="1" as="geometry">
            <mxPoint x="528" y="-15" as="sourcePoint" />
            <mxPoint x="264" y="284" as="targetPoint" />
          </mxGeometry>
        </mxCell>
        <mxCell id="hASC08Up0jTJIxxnL5Ud-26" value="Non-Unix Machine&lt;div&gt;GE/Philip Onlilne web commands&lt;br&gt;&lt;div&gt;&lt;br&gt;&lt;/div&gt;&lt;/div&gt;" style="rounded=0;whiteSpace=wrap;html=1;" vertex="1" parent="1">
          <mxGeometry x="382" y="-222" width="159.5" height="121" as="geometry" />
        </mxCell>
        <mxCell id="hASC08Up0jTJIxxnL5Ud-33" value="" style="endArrow=none;dashed=1;html=1;rounded=0;fontSize=12;startSize=8;endSize=8;curved=1;" edge="1" parent="1">
          <mxGeometry width="50" height="50" relative="1" as="geometry">
            <mxPoint x="419" y="219" as="sourcePoint" />
            <mxPoint x="419" y="219" as="targetPoint" />
            <Array as="points">
              <mxPoint x="124" y="186" />
              <mxPoint x="-69" y="219" />
              <mxPoint x="-157" y="380" />
              <mxPoint x="-167" y="687" />
              <mxPoint x="468" y="692" />
              <mxPoint x="481" y="457" />
            </Array>
          </mxGeometry>
        </mxCell>
        <mxCell id="hASC08Up0jTJIxxnL5Ud-34" value="Sub-Net: 255.255.255.192" style="text;html=1;align=center;verticalAlign=middle;resizable=0;points=[];autosize=1;strokeColor=none;fillColor=none;fontSize=16;" vertex="1" parent="1">
          <mxGeometry x="135" y="214" width="206" height="31" as="geometry" />
        </mxCell>
        <mxCell id="hASC08Up0jTJIxxnL5Ud-36" value="" style="endArrow=none;dashed=1;html=1;rounded=0;fontSize=12;startSize=8;endSize=8;curved=1;" edge="1" parent="1">
          <mxGeometry width="50" height="50" relative="1" as="geometry">
            <mxPoint x="730" y="-49" as="sourcePoint" />
            <mxPoint x="730" y="-49" as="targetPoint" />
            <Array as="points">
              <mxPoint x="549" y="139" />
              <mxPoint x="431" y="90" />
              <mxPoint x="363" y="-9" />
              <mxPoint x="279" y="-289" />
              <mxPoint x="858" y="-356" />
            </Array>
          </mxGeometry>
        </mxCell>
        <mxCell id="hASC08Up0jTJIxxnL5Ud-73" style="edgeStyle=none;curved=1;rounded=0;orthogonalLoop=1;jettySize=auto;html=1;exitX=0;exitY=0.25;exitDx=0;exitDy=0;entryX=0.5;entryY=1;entryDx=0;entryDy=0;fontSize=12;startSize=8;endSize=8;" edge="1" parent="1" source="hASC08Up0jTJIxxnL5Ud-37" target="hASC08Up0jTJIxxnL5Ud-26">
          <mxGeometry relative="1" as="geometry" />
        </mxCell>
        <mxCell id="hASC08Up0jTJIxxnL5Ud-37" value="Main Router:&lt;div&gt;255.255.255.32&lt;/div&gt;" style="whiteSpace=wrap;html=1;" vertex="1" parent="1">
          <mxGeometry x="528" y="-47" width="120" height="60" as="geometry" />
        </mxCell>
        <mxCell id="hASC08Up0jTJIxxnL5Ud-40" value="" style="shape=image;html=1;verticalAlign=top;verticalLabelPosition=bottom;labelBackgroundColor=#ffffff;imageAspect=0;aspect=fixed;image=https://cdn0.iconfinder.com/data/icons/evericons-24px-vol-2/24/lightbulb-128.png" vertex="1" parent="1">
          <mxGeometry x="-470" y="-174" width="82" height="82" as="geometry" />
        </mxCell>
        <mxCell id="hASC08Up0jTJIxxnL5Ud-41" value="" style="shape=image;html=1;verticalAlign=top;verticalLabelPosition=bottom;labelBackgroundColor=#ffffff;imageAspect=0;aspect=fixed;image=https://cdn0.iconfinder.com/data/icons/evericons-24px-vol-2/24/lightbulb-128.png" vertex="1" parent="1">
          <mxGeometry x="-24" y="-241" width="82" height="82" as="geometry" />
        </mxCell>
        <mxCell id="hASC08Up0jTJIxxnL5Ud-50" value="" style="shape=image;html=1;verticalAlign=top;verticalLabelPosition=bottom;labelBackgroundColor=#ffffff;imageAspect=0;aspect=fixed;image=https://cdn0.iconfinder.com/data/icons/evericons-24px-vol-2/24/lightbulb-128.png" vertex="1" parent="1">
          <mxGeometry x="-45" y="493" width="92" height="92" as="geometry" />
        </mxCell>
        <mxCell id="hASC08Up0jTJIxxnL5Ud-51" value="" style="shape=image;html=1;verticalAlign=top;verticalLabelPosition=bottom;labelBackgroundColor=#ffffff;imageAspect=0;aspect=fixed;image=https://cdn0.iconfinder.com/data/icons/evericons-24px-vol-2/24/lightbulb-128.png" vertex="1" parent="1">
          <mxGeometry x="125" y="507" width="92" height="92" as="geometry" />
        </mxCell>
        <mxCell id="hASC08Up0jTJIxxnL5Ud-52" value="" style="shape=image;html=1;verticalAlign=top;verticalLabelPosition=bottom;labelBackgroundColor=#ffffff;imageAspect=0;aspect=fixed;image=https://cdn0.iconfinder.com/data/icons/evericons-24px-vol-2/24/lightbulb-128.png" vertex="1" parent="1">
          <mxGeometry x="290" y="519" width="92" height="92" as="geometry" />
        </mxCell>
        <mxCell id="hASC08Up0jTJIxxnL5Ud-53" value="C Bulb" style="text;html=1;align=center;verticalAlign=middle;resizable=0;points=[];autosize=1;strokeColor=none;fillColor=none;fontSize=16;" vertex="1" parent="1">
          <mxGeometry x="-40.5" y="583.5" width="66" height="31" as="geometry" />
        </mxCell>
        <mxCell id="hASC08Up0jTJIxxnL5Ud-57" value="Cbulb" style="text;html=1;align=center;verticalAlign=middle;resizable=0;points=[];autosize=1;strokeColor=none;fillColor=none;fontSize=16;" vertex="1" parent="1">
          <mxGeometry x="122.5" y="601.5" width="60" height="31" as="geometry" />
        </mxCell>
        <mxCell id="hASC08Up0jTJIxxnL5Ud-58" value="cbulb&lt;div&gt;&lt;br&gt;&lt;/div&gt;" style="text;html=1;align=center;verticalAlign=middle;resizable=0;points=[];autosize=1;strokeColor=none;fillColor=none;fontSize=16;" vertex="1" parent="1">
          <mxGeometry x="302.5" y="596.5" width="56" height="50" as="geometry" />
        </mxCell>
        <mxCell id="hASC08Up0jTJIxxnL5Ud-59" value="" style="endArrow=none;dashed=1;html=1;rounded=0;fontSize=12;startSize=8;endSize=8;curved=1;" edge="1" parent="1">
          <mxGeometry width="50" height="50" relative="1" as="geometry">
            <mxPoint x="-26" y="198" as="sourcePoint" />
            <mxPoint x="-19" y="198" as="targetPoint" />
            <Array as="points">
              <mxPoint x="203" y="-329" />
              <mxPoint x="-567" y="-356" />
              <mxPoint x="-768" y="227" />
              <mxPoint x="-441" y="303" />
            </Array>
          </mxGeometry>
        </mxCell>
        <mxCell id="hASC08Up0jTJIxxnL5Ud-91" style="edgeStyle=none;curved=1;rounded=0;orthogonalLoop=1;jettySize=auto;html=1;exitX=1;exitY=0.25;exitDx=0;exitDy=0;entryX=0.25;entryY=1;entryDx=0;entryDy=0;fontSize=12;startSize=8;endSize=8;" edge="1" parent="1" source="hASC08Up0jTJIxxnL5Ud-62" target="hASC08Up0jTJIxxnL5Ud-1">
          <mxGeometry relative="1" as="geometry">
            <Array as="points">
              <mxPoint x="-102" y="556" />
            </Array>
          </mxGeometry>
        </mxCell>
        <mxCell id="hASC08Up0jTJIxxnL5Ud-62" value="GE Webserver" style="rounded=0;whiteSpace=wrap;html=1;" vertex="1" parent="1">
          <mxGeometry x="-613" y="664" width="120" height="60" as="geometry" />
        </mxCell>
        <mxCell id="hASC08Up0jTJIxxnL5Ud-88" style="edgeStyle=none;curved=1;rounded=0;orthogonalLoop=1;jettySize=auto;html=1;exitX=0.75;exitY=0;exitDx=0;exitDy=0;entryX=0.75;entryY=1;entryDx=0;entryDy=0;fontSize=12;startSize=8;endSize=8;" edge="1" parent="1" source="hASC08Up0jTJIxxnL5Ud-63" target="hASC08Up0jTJIxxnL5Ud-64">
          <mxGeometry relative="1" as="geometry">
            <Array as="points">
              <mxPoint x="-502" y="323" />
            </Array>
          </mxGeometry>
        </mxCell>
        <mxCell id="hASC08Up0jTJIxxnL5Ud-63" value="Philips Webserver" style="rounded=0;whiteSpace=wrap;html=1;" vertex="1" parent="1">
          <mxGeometry x="-741" y="372" width="120" height="60" as="geometry" />
        </mxCell>
        <mxCell id="hASC08Up0jTJIxxnL5Ud-79" style="edgeStyle=none;curved=1;rounded=0;orthogonalLoop=1;jettySize=auto;html=1;exitX=0.25;exitY=1;exitDx=0;exitDy=0;entryX=0.5;entryY=0;entryDx=0;entryDy=0;fontSize=12;startSize=8;endSize=8;" edge="1" parent="1" source="hASC08Up0jTJIxxnL5Ud-64" target="hASC08Up0jTJIxxnL5Ud-7">
          <mxGeometry relative="1" as="geometry" />
        </mxCell>
        <mxCell id="hASC08Up0jTJIxxnL5Ud-81" style="edgeStyle=none;curved=1;rounded=0;orthogonalLoop=1;jettySize=auto;html=1;exitX=1;exitY=0.25;exitDx=0;exitDy=0;entryX=0;entryY=0.5;entryDx=0;entryDy=0;fontSize=12;startSize=8;endSize=8;" edge="1" parent="1" source="hASC08Up0jTJIxxnL5Ud-64" target="hASC08Up0jTJIxxnL5Ud-4">
          <mxGeometry relative="1" as="geometry" />
        </mxCell>
        <mxCell id="hASC08Up0jTJIxxnL5Ud-64" value="T-Mobile VPN" style="rounded=0;whiteSpace=wrap;html=1;" vertex="1" parent="1">
          <mxGeometry x="-902" y="195" width="120" height="60" as="geometry" />
        </mxCell>
      </root>
    </mxGraphModel>
  </diagram>
</mxfile>
